<svg width="511" height="102" viewBox="0 0 511 102" fill="none" xmlns="http://www.w3.org/2000/svg">
<path d="M45.1099 43.7085C48.3974 44.1936 51.4158 45.5409 54.1105 47.6967C56.8592 49.8525 59.0147 52.5471 60.5776 55.7269C62.1945 58.9067 63.0033 62.3561 63.0033 65.967C63.0033 70.5481 61.8175 74.6443 59.5 78.3091C57.1825 81.974 53.7871 84.8842 49.3138 86.9861C44.8945 89.088 39.6665 90.1657 33.6303 90.1657H0V0H32.3368C38.4269 0 43.6549 0.97042 47.9664 3.01842C52.278 5.06642 55.512 7.76065 57.6678 11.2638C59.8236 14.7131 60.9013 18.5398 60.9013 22.9052C60.9013 28.2408 59.4459 32.6599 56.5895 36.1092C53.6792 39.6123 49.8526 42.1456 45.1099 43.7085ZM11.7493 38.9118H31.5289C37.0801 38.9118 41.3378 37.6185 44.3559 35.0315C47.374 32.4446 48.8829 28.8876 48.8829 24.3066C48.8829 19.7255 47.374 16.1685 44.3559 13.5816C41.3378 10.9946 36.9721 9.70131 31.3132 9.70131H11.7493V38.9118ZM32.6066 80.4111C38.4272 80.4111 43.0085 79.0637 46.2961 76.3151C49.5836 73.5125 51.2 69.6859 51.2 64.7815C51.2 59.7693 49.4756 55.8347 46.0263 52.9782C42.5771 50.0679 37.9963 48.6131 32.1757 48.6131H11.7493V80.4111H32.6066Z" fill="#202020"/>
<path d="M142.112 19.2499V90.1756H130.364V79.6664C128.1 83.2773 124.974 86.1335 120.986 88.1276C116.998 90.1756 112.578 91.2 107.728 91.2C102.23 91.2 97.2727 90.0142 92.8533 87.7506C88.4339 85.487 84.9844 82.0376 82.4513 77.4565C79.9183 72.9294 78.625 67.3245 78.625 60.8032V19.2499H90.2658V59.2401C90.2658 66.2464 92.0449 71.5819 95.548 75.3546C99.1051 79.0733 103.955 80.9598 110.045 80.9598C116.351 80.9598 121.309 79.0192 124.92 75.1388C128.531 71.2583 130.364 65.6 130.364 58.2164V19.2499H142.112Z" fill="#202020"/>
<path d="M176.411 28.9151V70.7375C176.411 74.1868 177.165 76.6119 178.62 78.0131C180.076 79.4683 182.663 80.1691 186.274 80.1691H491V90.1395H184.334C177.758 90.1395 172.854 88.5766 169.566 85.5585C166.279 82.5943 164.662 77.5821 164.662 70.7375V28.9151H155.5V19.2138H164.662V1.375H176.411V19.2138H194.951V28.9151H176.411Z" fill="#202020"/>
<path fill-rule="evenodd" clip-rule="evenodd" d="M510.442 84.5789L482 101.546V67.6875L510.442 84.5789Z" fill="#E89E4A"/>
</svg>
