<svg width="460" height="113" viewBox="0 0 460 113" fill="none" xmlns="http://www.w3.org/2000/svg">
<path d="M362.55 34.8918L346.423 84.0461L330.297 34.8918L304.557 34.8918L333.243 112.422L359.604 112.422L388.29 34.8918L362.55 34.8918Z" fill="white"/>
<path d="M179.269 112.426L150.234 73.6093L178.493 34.7925L151.321 34.7925L128.031 68.796L128.031 0.944199L104.741 0.944199L104.741 112.426H128.031V78.1121L152.874 112.426H179.269Z" fill="white"/>
<path d="M406.984 82.5091L459.112 82.5091C459.699 79.7192 459.993 76.7824 459.993 73.6989C459.993 51.5265 444.134 34.9339 422.696 34.9339C399.495 34.9339 383.637 51.8202 383.637 73.6989C383.637 95.5775 399.202 112.464 424.311 112.464C438.261 112.464 449.127 107.324 456.322 97.3396L438.701 87.2078C435.764 90.4383 430.625 92.7876 424.605 92.7876C416.529 92.7876 409.774 90.1446 406.984 82.5091ZM406.544 66.0633C408.599 58.5747 414.179 54.4632 422.549 54.4632C429.157 54.4632 435.764 57.5468 438.114 66.0633L406.544 66.0633Z" fill="white"/>
<path fill-rule="evenodd" clip-rule="evenodd" d="M28.8688 70.7503C29.0448 50.9153 45.197 34.8636 65.0699 34.8636C84.9428 34.8636 101.095 50.9153 101.271 70.7503V112.394H78.6709L78.6709 70.7503H78.6578C78.4944 63.397 72.4736 57.4767 65.0699 57.4767C57.6789 57.4767 51.6454 63.397 51.482 70.7503L51.482 112.394H28.8688L28.8688 70.7503Z" fill="white"/>
<path fill-rule="evenodd" clip-rule="evenodd" d="M254.614 76.509C254.438 96.344 238.285 112.396 218.412 112.396C198.54 112.396 182.387 96.344 182.211 76.509L182.211 34.8656L204.811 34.8656L204.811 76.509H204.825C204.988 83.8623 211.009 89.7826 218.412 89.7826C225.803 89.7826 231.837 83.8623 232 76.509L232 34.8656L254.614 34.8656L254.614 76.509Z" fill="white"/>
<path d="M25.3201 34.8636L2.75745 34.8636L2.75745 112.386H25.3201L25.3201 34.8636Z" fill="white"/>
<path fill-rule="evenodd" clip-rule="evenodd" d="M28.1417 14.9834C28.1417 11.2658 26.6794 7.68221 23.9979 5.04941C21.3163 2.4166 17.7822 0.930145 14.0036 0.930145C10.3469 0.930145 6.68948 2.4166 4.12979 5.04941C1.44822 7.68221 -0.0140381 11.2658 -0.0140381 14.9834L-0.0140381 14.996C-0.0140381 18.7137 1.44822 22.2972 4.12979 24.93C6.68948 27.5628 10.3469 29.05 14.0036 29.05C17.7822 29.05 21.3163 27.5628 23.9979 24.93C26.6794 22.2972 28.1417 18.7137 28.1417 14.996V14.9834Z" fill="#E89E4A"/>
<path fill-rule="evenodd" clip-rule="evenodd" d="M301.011 34.9058L258.159 34.9058V112.442H280.72V57.4789L301.011 57.4789V34.9058Z" fill="white"/>
</svg>
