<svg width="385" height="363" viewBox="0 0 385 363" fill="none" xmlns="http://www.w3.org/2000/svg">
<path d="M317.477 295.707H284.259V295.948H317.477V295.707Z" fill="#D7D7D6"/>
<path d="M60.0395 295.895H41.3472V296.136H60.0395V295.895Z" fill="#D7D7D6"/>
<path d="M158.942 361.9H121.056V362.141H158.942V361.9Z" fill="#D7D7D6"/>
<path d="M156.327 291.852H139.391V292.093H156.327V291.852Z" fill="#D7D7D6"/>
<path d="M362.732 291.946H311.573V292.187H362.732V291.946Z" fill="#D7D7D6"/>
<path d="M376.994 164.636C365.112 146.555 375.961 127.114 374.153 107.001C372.344 86.8872 353.23 82.496 356.846 65.448C361.04 45.68 349.873 26.7029 337.215 26.7029C324.558 26.7029 313.391 45.68 317.584 65.448C321.2 82.496 302.086 86.8872 300.277 107.001C298.47 127.114 309.318 146.555 297.437 164.636C285.554 182.717 288.673 206.668 295.37 218.554C297.216 221.829 299.387 224.727 301.755 227.291C320.756 247.87 353.674 247.87 372.676 227.291C375.044 224.727 377.216 221.829 379.06 218.554C385.758 206.668 388.876 182.717 376.994 164.636Z" fill="#D7D7D6"/>
<path d="M343.211 285.492H331.201V184.369C331.201 181.067 333.902 178.364 337.205 178.364C340.508 178.364 343.211 181.067 343.211 184.369V285.492Z" fill="#E9E7E7"/>
<path d="M261.708 285.493H245.356V184.378C245.356 179.881 249.035 176.202 253.532 176.202C258.03 176.202 261.708 179.881 261.708 184.378V285.493Z" fill="#D7D7D6"/>
<path d="M303.901 207.86C303.901 235.677 281.35 258.228 253.532 258.228C225.715 258.228 203.163 235.677 203.163 207.86C203.163 180.041 225.715 157.491 253.532 157.491C281.35 157.491 303.901 180.041 303.901 207.86Z" fill="#E9E7E7"/>
<path d="M313.31 187.964C313.31 198.928 304.422 207.814 293.461 207.814C282.498 207.814 273.611 198.928 273.611 187.964C273.611 177.003 282.498 168.115 293.461 168.115C304.422 168.115 313.31 177.003 313.31 187.964Z" fill="#E9E7E7"/>
<path d="M224.553 176.201C224.553 182.691 219.292 187.953 212.8 187.953C206.309 187.953 201.048 182.691 201.048 176.201C201.048 169.71 206.309 164.448 212.8 164.448C219.292 164.448 224.553 169.71 224.553 176.201Z" fill="#E9E7E7"/>
<path d="M233.811 170.159C233.811 174.715 230.118 178.408 225.562 178.408C221.008 178.408 217.314 174.715 217.314 170.159C217.314 165.603 221.008 161.91 225.562 161.91C230.118 161.91 233.811 165.603 233.811 170.159Z" fill="#E9E7E7"/>
<path d="M149.776 225.148C141.389 226.394 134.12 229.433 127.843 233.517C127.783 225.875 126.384 218.615 122.792 212.754C117.325 218.084 112.896 224.974 109.318 232.386C107.979 218.451 104.32 204.95 96.2186 196.417C84.0802 204.051 77.8236 216.778 74.847 230.256C70.0107 221.62 63.338 213.648 54.1241 207.853C46.6965 215.675 44.3261 226.492 44.5231 237.568C36.0864 227.746 26.7161 220.078 17.5833 219.176C15.3347 234.735 20.1236 249.404 26.2092 260.971C34.1911 276.142 50.0728 285.499 67.2165 285.499H106.885C123.792 285.499 139.643 276.478 147.575 261.547C152.6 252.093 154.989 239.914 149.776 225.148Z" fill="#D7D7D6"/>
<path d="M138.455 24.581C143.358 10.2219 139.466 0 127.483 0C119.968 0 110.65 4.02329 101.576 10.5743C100.552 6.8397 97.664 4.60164 93.0199 4.60164C84.8449 4.60164 73.5773 11.5166 64.7381 21.2741C62.5994 19.0988 59.505 17.7654 55.5271 17.5521C47.7045 17.1118 38.2289 21.0849 29.9912 27.548C29.2786 26.4667 28.0543 25.7879 26.3657 25.6875C21.8577 25.4355 15.7556 29.4462 12.7239 34.6388C12.5347 34.9661 12.3677 35.2799 12.1997 35.5946H140.835C141.219 31.0683 140.419 27.2835 138.455 24.581Z" fill="#E9E7E7"/>
<path d="M138.842 111.766C141.237 104.753 139.336 99.76 133.483 99.76C129.812 99.76 125.261 101.725 120.828 104.925C120.328 103.101 118.917 102.008 116.648 102.008C112.655 102.008 107.152 105.385 102.834 110.151C101.789 109.089 100.278 108.437 98.3345 108.333C94.513 108.118 89.8853 110.059 85.8611 113.215C85.5135 112.687 84.9149 112.356 84.0903 112.307C81.888 112.184 78.9065 114.143 77.4273 116.68C77.3346 116.839 77.2525 116.992 77.1705 117.146H140.005C140.192 114.935 139.801 113.087 138.842 111.766Z" fill="#E9E7E7"/>
<path d="M283.777 58.6704C283.288 58.5989 282.79 58.5632 282.286 58.5632C282.749 51.5565 280.071 47.0842 274.351 47.0842C270.222 47.0842 265.158 49.4188 259.996 53.3716C261.473 39.7724 256.743 30.9341 246.032 30.9341C237.393 30.9341 226.454 36.6827 215.651 46.0598C214.704 40.7254 211.521 37.5276 206.173 37.5276C196.776 37.5276 183.426 47.4077 172.72 61.3468H172.706C170.393 58.2398 166.918 56.3174 162.349 56.0123C153.403 55.3828 142.295 61.06 132.446 70.3106C131.695 68.7484 130.331 67.7781 128.38 67.6516C123.487 67.3108 116.745 72.4125 112.829 79.2387H291.653C295.85 68.8913 292.505 59.8377 283.777 58.6704Z" fill="#E9E7E7"/>
<path d="M381.41 318.205C381.41 324.243 297.596 329.137 194.207 329.137C90.8181 329.137 7.00481 324.243 7.00481 318.205C7.00481 312.167 90.8181 307.271 194.207 307.271C297.596 307.271 381.41 312.167 381.41 318.205Z" fill="#EEEDED"/>
<path d="M0 61.6799L220.109 93.3632L249.649 123.173L0 61.6799Z" fill="#286BB4"/>
<path d="M249.647 123.207L215.063 114.688L220.108 93.3969L175.473 86.9724L220.108 93.3969L249.647 123.207Z" fill="#F3B86D"/>
<path d="M0 61.6799L220.109 93.3633L209.895 136.469L0 61.6799Z" fill="#286BB4"/>
<path d="M209.895 136.469L181.548 104.825L139.02 94.7179L175.474 86.9387L220.109 93.3633L215.064 114.655L209.895 136.469ZM89.0078 82.8324L0 61.6799L87.1714 74.2277L89.0078 82.8324Z" fill="#AB5B00"/>
<path d="M205.384 11.7289L218.165 71.6168C218.857 74.8609 216.769 78.0809 213.526 78.7722L99.5181 103.102C96.2749 103.794 93.0559 101.707 92.3636 98.4638L79.5831 38.576C79.2211 36.8805 79.6198 35.187 80.5448 33.8594C81.3915 32.6564 82.6737 31.7507 84.2215 31.4205L198.228 7.09057C199.777 6.76036 201.316 7.06354 202.581 7.81664C203.967 8.65084 205.022 10.0344 205.384 11.7289Z" fill="#286BB4"/>
<path d="M98.2655 103.234C95.4839 103.234 92.9658 101.287 92.3633 98.4636L91.4567 94.2163L110.073 100.849L99.5178 103.102C99.0988 103.192 98.6788 103.234 98.2655 103.234ZM139.029 94.6701L89.0169 82.7846L79.5829 38.5757C79.494 38.1586 79.4506 37.7415 79.4506 37.3302C79.4486 36.0692 79.8474 34.8604 80.5445 33.8591C81.3913 32.6561 82.6735 31.7505 84.2212 31.4203L198.228 7.09028C198.648 7.00049 199.068 6.95801 199.481 6.95801C200.592 6.95801 201.658 7.26794 202.581 7.81635C203.967 8.65055 205.021 10.0341 205.383 11.7286L218.165 71.6165C218.254 72.0346 218.297 72.4526 218.297 72.8649C218.299 75.6485 216.351 78.1694 213.526 78.7719L211.344 79.2383L198.807 81.9137L198.566 81.9649L187.188 84.3931L186.947 84.4443L139.029 94.6701Z" fill="#965000"/>
<path d="M202.568 7.81664L164.473 54.5784C157.196 63.5084 144.685 66.1781 134.398 60.9961L80.5318 33.8594C81.3796 32.6564 82.6608 31.7507 84.2085 31.4205L198.215 7.09057C199.764 6.76036 201.303 7.06354 202.568 7.81664Z" fill="#E49E46"/>
<path d="M0 61.6799L181.548 104.825L209.895 136.469L0 61.6799Z" fill="#286BB4"/>
<path d="M209.895 136.469L198.798 132.515L198.557 132.429L187.179 128.375L186.938 128.289L139.03 111.218L121.009 104.797L120.777 104.715L114.189 102.368L110.064 100.897L91.4476 94.2641L0 61.6799L181.548 104.825L209.895 136.469Z" fill="#F3B86D"/>
<path d="M0 61.6799L181.548 104.825L146.26 147.362L0 61.6799Z" fill="#E49E46"/>
<path d="M242.827 162.723C242.592 162.723 242.351 162.678 242.118 162.585L212.54 150.876C211.549 150.484 211.063 149.362 211.456 148.369C211.848 147.379 212.965 146.89 213.962 147.285L243.54 158.996C244.532 159.388 245.017 160.51 244.624 161.501C244.324 162.26 243.597 162.723 242.827 162.723Z" fill="#286BB4"/>
<path d="M242.827 162.723C242.592 162.723 242.351 162.678 242.118 162.586L212.54 150.876C211.781 150.576 211.319 149.848 211.32 149.077C211.32 148.841 211.364 148.602 211.456 148.369C211.756 147.612 212.479 147.148 213.249 147.148C213.485 147.148 213.728 147.192 213.962 147.285L243.54 158.996C244.299 159.296 244.761 160.024 244.76 160.794C244.76 161.029 244.716 161.27 244.624 161.501C244.324 162.26 243.597 162.723 242.827 162.723Z" fill="#AB5B00"/>
<path d="M241.077 145.83C240.841 145.83 240.6 145.786 240.366 145.694L224.481 139.405C223.49 139.013 223.004 137.891 223.397 136.898C223.788 135.908 224.907 135.419 225.904 135.814L241.788 142.103C242.78 142.495 243.265 143.617 242.872 144.61C242.573 145.368 241.846 145.83 241.077 145.83Z" fill="#286BB4"/>
<path d="M241.076 145.83C240.841 145.83 240.599 145.786 240.366 145.694L224.481 139.405C223.722 139.105 223.259 138.377 223.261 137.606C223.261 137.371 223.305 137.131 223.397 136.898C223.696 136.141 224.42 135.677 225.19 135.677C225.427 135.677 225.669 135.721 225.903 135.814L241.788 142.103C242.548 142.404 243.01 143.132 243.008 143.901C243.008 144.138 242.964 144.377 242.872 144.61C242.573 145.368 241.846 145.83 241.076 145.83Z" fill="#F3B86D"/>
<path d="M207.887 162.429C207.652 162.429 207.411 162.384 207.178 162.293L178.339 150.875C177.347 150.483 176.862 149.36 177.255 148.368C177.647 147.377 178.768 146.892 179.761 147.284L208.599 158.702C209.592 159.094 210.077 160.216 209.683 161.208C209.384 161.966 208.657 162.429 207.887 162.429Z" fill="#286BB4"/>
<path d="M207.887 162.429C207.652 162.429 207.411 162.385 207.178 162.293L198.806 158.978L198.564 158.883L187.187 154.378L186.945 154.282L178.339 150.875C177.58 150.575 177.117 149.847 177.118 149.076C177.118 148.84 177.163 148.601 177.254 148.368C177.554 147.61 178.28 147.148 179.049 147.148C179.286 147.148 179.527 147.192 179.761 147.284L208.599 158.702C209.359 159.003 209.821 159.731 209.82 160.501C209.819 160.737 209.776 160.976 209.683 161.209C209.384 161.967 208.657 162.429 207.887 162.429Z" fill="#AB5B00"/>
<path d="M312.28 75.4075C314.836 80.403 317.184 85.3996 319.411 90.5216C321.622 95.6437 323.724 100.82 325.532 106.251L326.192 108.31C326.303 108.676 326.475 109.278 326.565 109.705C326.654 110.151 326.752 110.612 326.804 111.019C327.059 112.702 327.104 114.221 327.133 115.717C327.181 118.694 326.979 121.534 326.732 124.357C326.191 129.998 325.311 135.484 324.103 140.987L318.809 140.399C318.74 134.96 318.689 129.468 318.501 124.112C318.405 121.438 318.252 118.771 317.981 116.255C317.844 115.006 317.641 113.78 317.407 112.755C317.353 112.484 317.28 112.278 317.218 112.053C317.142 111.813 317.109 111.757 317.004 111.471L316.276 109.646C314.259 104.76 311.988 99.8311 309.674 94.9272L302.664 80.2186L312.28 75.4075Z" fill="white"/>
<path d="M318.887 138.78L316.415 143.403L324.31 145.605C324.31 145.605 325.814 141.886 324.023 138.954L318.887 138.78Z" fill="white"/>
<path d="M313.407 150.052L320.665 150.625L324.328 145.59L316.433 143.387L313.407 150.052Z" fill="white"/>
<path d="M279.059 42.0588C278.946 42.6198 278.556 43.0137 278.19 42.9394C277.823 42.865 277.618 42.3504 277.732 41.7894C277.846 41.2285 278.236 40.8346 278.601 40.9099C278.968 40.9832 279.173 41.4988 279.059 42.0588Z" fill="#24303B"/>
<path d="M278.603 43.063C278.603 43.063 276.671 46.0387 274.951 47.3132C275.754 48.4409 277.527 48.3608 277.527 48.3608L278.603 43.063Z" fill="white"/>
<path d="M281.742 39.4036C281.652 39.4036 281.563 39.367 281.495 39.2955C280.49 38.2064 279.295 38.3841 279.242 38.3908C279.066 38.4227 278.887 38.2972 278.857 38.1137C278.827 37.9312 278.95 37.7584 279.131 37.7275C279.196 37.7159 280.727 37.4736 281.989 38.8398C282.115 38.9759 282.106 39.1883 281.971 39.3139L281.742 39.4036Z" fill="#24303B"/>
<path d="M295.014 49.927C293.997 55.1157 292.983 64.624 296.612 68.0854C296.612 68.0854 295.195 73.3494 285.552 73.3494C274.95 73.3494 280.485 68.0864 280.485 68.0864C286.271 66.7047 286.123 62.4121 285.115 58.3801L295.014 49.927Z" fill="white"/>
<path d="M298.084 71.4014C298.85 68.8582 299.693 65.9482 297.949 65.0377C296.03 64.0345 285.529 63.012 281.91 64.8948C278.289 66.7766 279.316 71.9334 279.316 71.9334L298.084 71.4014Z" fill="#24303B"/>
<path d="M319.47 310.803L319.263 310.824C319.119 310.858 319.018 310.932 318.952 311.05C318.801 311.327 318.891 311.444 318.92 311.483C319.224 311.88 320.674 311.887 321.731 311.708C321.121 311.331 320.115 310.803 319.47 310.803ZM320.356 312.155C319.629 312.155 318.926 312.044 318.653 311.686C318.538 311.536 318.446 311.276 318.659 310.888C318.77 310.685 318.949 310.554 319.186 310.497C320.228 310.257 322.18 311.596 322.263 311.652L322.333 311.822L322.208 311.954C321.844 312.042 321.088 312.155 320.356 312.155Z" fill="#286BB4"/>
<path d="M320.722 309.111L320.646 309.116C320.427 309.142 320.409 309.244 320.4 309.286C320.312 309.755 321.216 310.929 321.946 311.481C321.863 310.883 321.636 309.691 321.108 309.259C320.987 309.16 320.861 309.111 320.722 309.111ZM322.154 311.987L322.074 311.966C321.34 311.569 319.92 310.016 320.07 309.223C320.098 309.081 320.203 308.832 320.605 308.782C320.86 308.753 321.106 308.823 321.32 308.999C322.145 309.671 322.315 311.718 322.321 311.805L322.245 311.959L322.154 311.987Z" fill="#286BB4"/>
<path d="M276.628 310.8C276.51 310.8 276.401 310.812 276.304 310.838C276.148 310.881 276.041 310.957 275.975 311.073C275.855 311.282 275.898 311.386 275.942 311.445C276.261 311.888 278.053 311.911 279.384 311.728C278.725 311.39 277.458 310.8 276.628 310.8ZM277.752 312.176C276.842 312.176 275.965 312.051 275.669 311.642C275.566 311.499 275.485 311.254 275.683 310.907C275.794 310.712 275.974 310.58 276.217 310.514C277.39 310.2 279.876 311.606 279.98 311.667L280.062 311.839L279.929 311.977C279.476 312.067 278.601 312.176 277.752 312.176Z" fill="#286BB4"/>
<path d="M278.163 309.111L278.063 309.116C277.759 309.147 277.741 309.266 277.734 309.306C277.657 309.787 278.809 310.993 279.682 311.517C279.592 310.959 279.338 309.816 278.746 309.33C278.568 309.183 278.376 309.111 278.163 309.111ZM279.893 311.987L279.825 311.972C278.969 311.589 277.273 310.056 277.402 309.252C277.433 309.063 277.566 308.83 278.028 308.782C278.372 308.749 278.684 308.844 278.96 309.07C279.862 309.811 280.053 311.721 280.06 311.802L279.992 311.956L279.893 311.987Z" fill="#286BB4"/>
<path d="M287.686 311.85H280.593L279.887 295.424H286.981L287.686 311.85Z" fill="white"/>
<path d="M330.27 311.85H323.178L319.612 295.424H326.706L330.27 311.85Z" fill="white"/>
<path d="M322.676 311.032H330.645C330.935 311.032 331.186 311.234 331.249 311.517L332.65 317.823C332.796 318.476 332.282 319.095 331.611 319.084C328.83 319.036 327.478 318.873 323.974 318.873C321.818 318.873 317.376 319.096 314.399 319.096C311.488 319.096 311.033 316.153 312.253 315.886C317.717 314.691 319.776 313.042 321.525 311.47C321.84 311.186 322.252 311.032 322.676 311.032Z" fill="#24303B"/>
<path d="M280.657 311.032H288.403C288.694 311.032 288.944 311.234 289.007 311.517L290.408 317.823C290.553 318.476 290.057 319.095 289.387 319.084C286.594 319.037 282.556 318.873 279.043 318.873C274.937 318.873 271.391 319.096 266.575 319.096C263.664 319.096 262.856 316.153 264.074 315.886C269.623 314.672 274.153 314.542 278.949 311.587C279.469 311.265 280.046 311.032 280.657 311.032Z" fill="#24303B"/>
<path d="M277.226 80.5531C271.212 80.0839 265.431 79.3047 259.55 78.203C256.624 77.6411 253.692 77.0135 250.76 76.2237C247.826 75.4368 244.885 74.5457 241.914 73.305C241.172 72.9989 240.421 72.6571 239.672 72.3009C238.732 71.8364 237.952 71.3537 237.263 70.896C235.868 69.974 234.675 69.0249 233.487 68.0777C231.125 66.1863 228.927 64.2205 226.759 62.2344C222.441 58.2411 218.344 54.1067 214.399 49.758L217.951 45.7898L231.96 55.8582C234.272 57.5256 236.606 59.1535 238.902 60.6896C240.046 61.4495 241.215 62.1707 242.279 62.7703C242.819 63.0763 243.299 63.3061 243.669 63.4529C244.243 63.6769 244.825 63.899 245.435 64.1027C250.339 65.7392 255.884 66.7887 261.391 67.676C266.905 68.5489 272.601 69.2672 278.105 69.8378L277.226 80.5531Z" fill="white"/>
<path d="M309.315 69.7008C315.963 71.2243 322.684 90.663 322.684 90.663L309 100.478C309 100.478 305.176 91.4248 301.417 83.5076C297.476 75.2129 302.518 68.1424 309.315 69.7008Z" fill="#286BB4"/>
<path d="M309.013 100.478C309.013 100.478 307.953 97.9688 306.402 94.4389V94.4341C307.583 97.1191 308.479 99.2143 308.843 100.066C308.776 95.1012 308.103 89.3091 307.068 84.9962C307.556 79.9649 308.281 74.8168 309.328 69.7005C309.328 69.7005 309.098 69.6551 308.686 69.5779C308.898 69.6107 309.112 69.6513 309.328 69.7005C315.976 71.2241 322.697 90.6628 322.697 90.6628L320.243 92.4229L311.466 98.718L309.013 100.478Z" fill="#282828"/>
<path d="M305.471 80.3909L302.758 86.4639C305.568 92.5283 308.136 98.5329 308.822 100.137C308.725 92.9619 307.364 84.0608 305.471 80.3909Z" fill="#286BB4"/>
<path d="M308.843 100.068C308.479 99.2162 307.583 97.121 306.402 94.4359C306.543 91.3656 306.757 88.2045 307.068 84.998C308.103 89.311 308.776 95.1031 308.843 100.068Z" fill="#050505"/>
<path d="M269.572 70.0919C269.572 70.0919 262.022 78.6193 269.153 131.399H307.091C307.351 125.576 303.692 97.1658 309.309 69.726C309.309 69.726 302.807 68.4215 296.609 68.1222C291.762 67.8886 284.744 67.7341 280.482 68.1232C274.864 68.6359 269.572 70.0919 269.572 70.0919Z" fill="#286BB4"/>
<path d="M307.09 131.399H269.152C266.865 114.468 266.088 102.09 266.089 93.0866C266.089 91.0571 266.128 89.2004 266.199 87.5001C268.339 86.8339 270.835 85.8945 273.324 84.5949C277.363 84.0098 281.137 83.0269 282.995 81.3807C285.309 79.329 286.648 76.6545 286.647 74.2446C286.643 71.2573 284.58 68.6775 279.758 68.1947C279.998 68.1686 280.239 68.1445 280.482 68.1233C282.361 67.9514 284.774 67.8857 287.302 67.8857C290.509 67.8857 293.899 67.992 296.609 68.1223C302.806 68.4216 309.309 69.726 309.309 69.726C308.261 74.8423 307.536 79.9904 307.049 85.0217C306.738 88.2281 306.524 91.3892 306.383 94.4596V94.4644C306.221 97.9789 306.158 101.378 306.158 104.603C306.159 117.012 307.105 126.838 307.104 130.702C307.104 130.962 307.099 131.194 307.09 131.399ZM266.236 86.6795C266.26 86.1957 266.286 85.7236 266.314 85.2659C266.316 85.2659 266.316 85.2659 266.317 85.265C266.288 85.7236 266.261 86.1948 266.236 86.6795Z" fill="#282828"/>
<path d="M266.776 80.3909C266.525 82.3904 266.332 84.755 266.206 87.5453C269.344 86.5702 273.245 85.007 276.769 82.5826L266.776 80.3909Z" fill="#286BB4"/>
<path d="M266.206 87.5271C266.242 86.7498 266.282 86.0054 266.327 85.2919C268.535 85.1693 270.98 84.9636 273.335 84.6218C270.846 85.9214 268.35 86.8609 266.209 87.5271H266.206Z" fill="#050505"/>
<path d="M283.014 81.3604C277.938 85.8577 258.548 85.4078 258.548 85.4078L257.909 66.6633C257.909 66.6633 268.901 68.2748 277.673 68.0971C288.507 67.877 288.583 76.4247 283.014 81.3604Z" fill="#286BB4"/>
<path d="M260.008 85.4204C259.087 85.4204 258.548 85.4078 258.548 85.4078L257.909 66.6633C257.909 66.6633 267.781 68.1106 276.279 68.1106C276.749 68.1106 277.213 68.1058 277.673 68.0971C277.809 68.0942 277.944 68.0923 278.078 68.0923C284.118 68.0923 286.662 70.9077 286.666 74.2243C286.667 76.6342 285.328 79.3087 283.014 81.3604C281.156 83.0066 277.382 83.9895 273.343 84.5746C270.988 84.9164 268.544 85.122 266.336 85.2446C266.335 85.2456 266.335 85.2456 266.333 85.2456C263.705 85.3914 261.412 85.4204 260.008 85.4204Z" fill="#282828"/>
<path d="M218.118 45.9264L213.25 40.2424L208.052 45.9988C208.052 45.9988 211.252 51.3825 216.347 50.5329L218.118 45.9264Z" fill="white"/>
<path d="M206.375 33.5669L204.503 40.983L208.053 45.9525L213.25 40.1961L206.375 33.5669Z" fill="white"/>
<path d="M279.887 295.424L280.25 303.892H287.345L286.983 295.424H279.887Z" fill="white"/>
<path d="M326.709 295.424H319.612L321.454 303.892H328.549L326.709 295.424Z" fill="white"/>
<path d="M284.161 35.0057C277.798 32.0648 275.787 19.2322 294.091 22.4097C294.091 22.4097 291.333 25.4674 296.936 27.3985C302.539 29.3295 297.848 41.3318 284.161 35.0057Z" fill="#24303B"/>
<path d="M297.998 44.7328C296.176 51.5329 295.454 55.6045 291.258 58.4325C284.947 62.6846 277.089 57.8039 276.842 50.5973C276.622 44.11 279.639 34.0803 286.935 32.7102C294.124 31.3595 299.821 37.9337 297.998 44.7328Z" fill="white"/>
<path d="M293.837 25.8866C298.169 28.309 304.042 29.7534 303.451 33.1878C302.728 37.3868 307.001 34.7596 306.006 41.0152C305.357 45.0983 297.823 57.4753 292.52 56.8708C284.549 55.9623 285.56 43.7862 285.534 37.3878C285.517 33.6155 285.341 21.1353 293.837 25.8866Z" fill="#24303B"/>
<path d="M284.579 31.3101C282.648 31.7658 280.089 42.8962 287.569 43.9148C296.178 45.0889 284.579 31.3101 284.579 31.3101Z" fill="#24303B"/>
<path d="M284.774 35.224C282.406 35.4325 277.069 32.5843 277.706 28.3013C277.706 28.3013 281.109 33.3132 284.774 35.224Z" fill="#24303B"/>
<path d="M298.903 36.9723C300.337 36.2424 303.6 34.5904 304.489 29.8999C304.489 29.8999 307.675 38.7981 298.903 36.9723Z" fill="#24303B"/>
<path d="M306.979 36.8309C306.264 36.4129 304.639 35.458 302.359 36.3762C302.359 36.3762 305.331 32.519 306.979 36.8309Z" fill="#24303B"/>
<path d="M282.614 131.446C282.614 131.446 290.663 185.652 295.082 205.961C299.921 228.198 318.153 302.274 318.153 302.274H331.145C331.145 302.274 319.123 229.993 316.361 207.976C313.364 184.078 307.094 131.446 307.094 131.446H282.614Z" fill="#286BB4"/>
<path d="M330.434 297.98L316.985 297.519C312.885 280.811 299.181 224.794 295.082 205.961C295.023 205.69 294.964 205.414 294.905 205.132C295.262 199.433 295.606 192.019 295.605 184.507C295.604 174.101 294.943 163.508 292.747 157.015C293.472 142.62 294.094 131.446 294.094 131.446H282.614H307.094C307.094 131.446 313.364 184.078 316.361 207.976C318.717 226.758 327.811 282.113 330.434 297.98Z" fill="#E49E46"/>
<path d="M316.086 297.399L317.428 302.388H332.044L331.776 297.936L316.086 297.399Z" fill="#286BB4"/>
<path d="M332.044 302.388H317.428L316.086 297.399L331.776 297.936L332.044 302.388Z" fill="#AB5B00"/>
<path d="M287.718 150.699C297.025 152.524 296.04 187.234 294.92 205.087C292.237 192.467 288.307 168.184 285.622 150.95C286.241 150.642 286.935 150.545 287.718 150.699Z" fill="#286BB4"/>
<path d="M294.916 205.059C293.876 200.171 292.65 193.533 291.381 186.233C291.795 176.523 292.298 166.074 292.759 156.927C294.956 163.42 295.616 174.013 295.617 184.419C295.618 191.931 295.274 199.344 294.917 205.044C294.916 205.049 294.916 205.053 294.916 205.059Z" fill="#AB5B00"/>
<path d="M269.153 131.446C269.153 131.446 268.176 184.478 268.948 206.109C269.75 228.609 277.608 302.274 277.608 302.274H289.624C289.624 302.274 290.065 229.923 290.6 207.826C291.182 183.738 294.091 131.446 294.091 131.446H269.153Z" fill="#286BB4"/>
<path d="M289.651 297.98L277.11 297.551C276.266 289.502 274.485 272.268 272.793 254.467C270.994 235.522 269.298 215.934 268.947 206.109C268.729 199.994 268.651 191.369 268.651 182.141C268.65 158.731 269.153 131.446 269.153 131.446H294.09C294.09 131.446 293.469 142.62 292.743 157.015C292.282 166.162 291.779 176.611 291.366 186.321C291.026 194.319 290.747 201.816 290.604 207.672C290.602 207.724 290.601 207.775 290.6 207.826C290.228 223.183 289.902 262.817 289.737 285.563C289.737 285.643 289.736 285.724 289.735 285.805C289.707 289.711 289.684 293.109 289.665 295.789C289.665 295.87 289.664 295.949 289.664 296.03C289.66 296.732 289.655 297.384 289.651 297.98ZM271.953 182.194C271.953 191.415 272.031 200.036 272.248 206.114C272.879 223.813 277.874 273.147 279.991 293.535L280.111 293.644L280.123 293.643L280.23 293.51C278.113 273.124 273.12 223.796 272.489 206.104C272.273 200.028 272.194 191.41 272.194 182.191C272.194 164.007 272.495 143.485 272.624 135.528L272.505 135.406H272.504L272.384 135.524C272.253 143.482 271.953 164.006 271.953 182.194Z" fill="#E49E46"/>
<path d="M280.123 293.633L280.003 293.525C277.886 273.136 272.891 223.802 272.26 206.103C271.616 188.038 272.2 147.505 272.396 135.514L272.517 135.395H272.518L272.636 135.518C272.441 147.508 271.857 188.035 272.501 206.094C273.133 223.786 278.125 273.113 280.243 293.5L280.136 293.632L280.123 293.633Z" fill="#286BB4"/>
<path d="M280.123 293.633L280.003 293.525C277.886 273.136 272.891 223.802 272.26 206.103C272.044 200.026 271.965 191.404 271.965 182.184C271.965 163.995 272.266 143.472 272.396 135.514L272.517 135.395H272.518L272.636 135.518C272.507 143.474 272.207 163.996 272.207 182.181C272.207 191.4 272.285 200.018 272.501 206.094C273.133 223.786 278.125 273.113 280.243 293.5L280.136 293.632L280.123 293.633Z" fill="#F3B86D"/>
<path d="M275.303 297.399L275.981 302.388H290.598L290.993 297.936L275.303 297.399Z" fill="#286BB4"/>
<path d="M290.598 302.388H275.981L275.303 297.399L290.993 297.936L290.598 302.388Z" fill="#AB5B00"/>
</svg>
