<svg width="284" height="299" viewBox="0 0 284 299" fill="none" xmlns="http://www.w3.org/2000/svg">
<rect x="8.9608" y="99.9443" width="176.032" height="212.097" transform="rotate(-21.3584 8.9608 99.9443)" fill="#965000"/>
<rect x="33.0363" y="64.1113" width="176.032" height="212.097" transform="rotate(-21.3584 33.0363 64.1113)" fill="#E49E46"/>
<rect x="78.5964" y="124.252" width="137" height="116" transform="rotate(-21.3584 78.5964 124.252)" fill="#FFBD6A"/>
<rect x="78.5964" y="124.252" width="137" height="116" transform="rotate(-21.3584 78.5964 124.252)" fill="#FFBD6A"/>
<rect x="78.5964" y="124.252" width="137" height="116" transform="rotate(-21.3584 78.5964 124.252)" fill="#FFBD6A"/>
<rect x="94.7567" y="99.6792" width="58" height="5" transform="rotate(-21.3584 94.7567 99.6792)" fill="#FFBD6A"/>
<rect x="94.7567" y="99.6792" width="58" height="5" transform="rotate(-21.3584 94.7567 99.6792)" fill="#FFBD6A"/>
<rect x="94.7567" y="99.6792" width="58" height="5" transform="rotate(-21.3584 94.7567 99.6792)" fill="#FFBD6A"/>
<circle cx="82.8108" cy="107.572" r="10" transform="rotate(-21.3584 82.8108 107.572)" fill="#FFBD6A"/>
<path d="M40 298H261.5" stroke="#DDDDDD"/>
</svg>
