<svg width="216" height="216" viewBox="0 0 216 216" fill="none" xmlns="http://www.w3.org/2000/svg">
<g opacity="0.48" clip-path="url(#clip0)">
<path fill-rule="evenodd" clip-rule="evenodd" d="M158.441 117.376C158.441 115.253 157.597 113.217 156.089 111.716C154.593 110.214 152.557 109.371 150.431 109.371C126.963 109.371 58.4842 109.371 35.0166 109.371C32.8903 109.371 30.8542 110.214 29.3579 111.716C27.8504 113.217 27.0066 115.253 27.0066 117.376C27.0066 128.754 27.0066 150.457 27.0066 170.516C27.0066 195.088 46.9304 215.008 71.5005 215.008H113.947C138.517 215.008 158.441 195.088 158.441 170.516V117.376Z" fill="#965000"/>
<path fill-rule="evenodd" clip-rule="evenodd" d="M158.437 127.742C174.828 127.808 188.115 141.139 188.115 157.55C188.115 173.656 175.312 186.796 159.337 187.34C159.033 187.35 151.529 187.356 151.226 187.357L157.935 175.355C168.004 175.288 176.673 167.642 176.673 157.55C176.673 147.456 168.506 139.254 158.437 139.187V127.742Z" fill="#965000"/>
<path fill-rule="evenodd" clip-rule="evenodd" d="M80.2503 28.3711C80.2503 28.3711 65.9401 40.6775 81.3977 64.4319C96.8439 88.1863 84.9302 96.4246 78.3264 101.552C78.3264 101.552 110.412 90.3913 92.839 62.4282C73.5002 31.6561 80.2503 28.3711 80.2503 28.3711Z" fill="white" fill-opacity="0.6"/>
<path fill-rule="evenodd" clip-rule="evenodd" d="M104.136 0C104.136 0 89.8255 12.3064 105.283 36.0608C120.729 59.8152 108.816 68.0535 102.212 73.1813C102.212 73.1813 134.297 62.0202 116.724 34.0571C97.3856 3.285 104.136 0 104.136 0Z" fill="white" fill-opacity="0.6"/>
</g>
<defs>
<clipPath id="clip0">
<rect width="216" height="216" fill="white"/>
</clipPath>
</defs>
</svg>
